<?xml version="1.0" encoding="utf-8"?>
<svg id="svg" version="1.1" xmlns="http://www.w3.org/2000/svg" style="display: block;" viewBox="0 0 200 200">
  <path d="M0 0 C0.99 0.99 1.98 1.98 3 3 C2.34 4.32 1.68 5.64 1 7 C-8.67969944 5.06406011 -18.34034829 3.03361089 -28 1 C-51.59665414 -1.94958177 -73.35732565 0.53066447 -96 7 C-97.32 6.67 -98.64 6.34 -100 6 C-100.33 4.35 -100.66 2.7 -101 1 C-66.41539914 -8.60683357 -34.78441544 -9.27584412 0 0 Z" transform="translate(146,183)" style=";" />
  <path d="M0 0 C0.66 0.33 1.32 0.66 2 1 C-0.31 7.93 -2.62 14.86 -5 22 C-24 29 -24 29 -27 29 C-25 20 -25 20 -20 7 C-10.1 3.535 -10.1 3.535 0 0 Z" transform="translate(34,161)" style=";" />
  <path d="M0 0 C7.37104565 2.21131369 14.6993151 4.56643837 22 7 C29 27 29 27 29 29 C20 27 20 27 7 22 C0 2 0 2 0 0 Z" transform="translate(158,161)" style=";" />
  <path d="M0 0 C2.31 0.33 4.62 0.66 7 1 C9.89801094 8.24502736 12.5324326 15.59729779 15 23 C9 22 9 22 6 20 C0 2 0 2 0 0 Z" transform="translate(143,157)" style=";" />
  <path d="M0 0 C1.32 0.33 2.64 0.66 4 1 C1.69 7.6 -0.62 14.2 -3 21 C-5.64 21.66 -8.28 22.32 -11 23 C-8.69 16.07 -6.38 9.14 -4 2 C-2.68 1.34 -1.36 0.68 0 0 Z" transform="translate(47,157)" style=";" />
  <path d="M0 0 C6 0 6 0 8 1 C14 19 14 19 14 21 C11.36 20.34 8.72 19.68 6 19 C0 1 0 1 0 0 Z" transform="translate(128,154)" style=";" />
  <path d="M0 0 C-1 7 -1 7 -5 18 C-11 21 -11 21 -13 21 C-11 12 -11 12 -7 1 C-5 0 -5 0 0 0 Z" transform="translate(65,154)" style=";" />
  <path d="M0 0 C2.31 0 4.62 0 7 0 C10 8 10 8 13 19 C10.69 18.67 8.38 18.34 6 18 C2 9 2 9 0 0 Z" transform="translate(114,152)" style=";" />
  <path d="M0 0 C2.31 0 4.62 0 7 0 C4 11 4 11 1 18 C-1.31 18.33 -3.62 18.66 -6 19 C-4.77874941 12.89374707 -2.83132568 6.95180847 -1 1 C-0.67 0.67 -0.34 0.34 0 0 Z" transform="translate(73,152)" style=";" />
  <path d="M0 0 C2.31 0 4.62 0 7 0 C8.98 5.94 10.96 11.88 13 18 C2 18 2 18 0 17 C0 11.39 0 5.78 0 0 Z" transform="translate(100,151)" style=";" />
  <path d="M0 0 C2.31 0 4.62 0 7 0 C7 5.61 7 11.22 7 17 C5 18 5 18 -6 18 C-4.35 12.39 -2.7 6.78 -1 1 C-0.67 0.67 -0.34 0.34 0 0 Z" transform="translate(87,151)" style=";" />
  <path d="M0 0 C-0.33 2.31 -0.66 4.62 -1 7 C-13 12 -13 12 -23 15 C-22 9 -22 9 -20 6 C-2 0 -2 0 0 0 Z" transform="translate(40,146)" style=";" />
  <path d="M0 0 C-0.66 2.64 -1.32 5.28 -2 8 C-4.31 8.33 -6.62 8.66 -9 9 C-8.67 6.69 -8.34 4.38 -8 2 C-3 0 -3 0 0 0 Z" transform="translate(55,142)" style=";" />
  <path d="M0 0 C0.33 1.32 0.66 2.64 1 4 C0.67 5.32 0.34 6.64 0 8 C-2.64 8.33 -5.28 8.66 -8 9 C-7.67 6.69 -7.34 4.38 -7 2 C-4.69 1.34 -2.38 0.68 0 0 Z" transform="translate(68,139)" style=";" />
  <path d="M0 0 C2.31 0 4.62 0 7 0 C6.67 2.31 6.34 4.62 6 7 C4 8 4 8 -2 8 C-1.34 5.36 -0.68 2.72 0 0 Z" transform="translate(76,138)" style=";" />
  <path d="M0 0 C1.32 0.33 2.64 0.66 4 1 C4 3.31 4 5.62 4 8 C2.02 8 0.04 8 -2 8 C-1.34 5.36 -0.68 2.72 0 0 Z" transform="translate(90,137)" style=";" />
  <path d="M0 0 C-0.33 2.64 -0.66 5.28 -1 8 C-19 14 -19 14 -21 14 C-20.34 11.36 -19.68 8.72 -19 6 C-1 0 -1 0 0 0 Z" transform="translate(43,131)" style=";" />
  <path d="M0 0 C0 1.98 0 3.96 0 6 C-0.66 6.66 -1.32 7.32 -2 8 C-3.98 8.33 -5.96 8.66 -8 9 C-7.67 6.36 -7.34 3.72 -7 1 C-4 0 -4 0 0 0 Z" transform="translate(57,128)" style=";" />
  <path d="M0 0 C0.99 0.33 1.98 0.66 3 1 C2.34 3.31 1.68 5.62 1 8 C-1.31 8.33 -3.62 8.66 -6 9 C-5.67 6.36 -5.34 3.72 -5 1 C-3.35 0.67 -1.7 0.34 0 0 Z" transform="translate(69,125)" style=";" />
  <path d="M0 0 C2.64 0 5.28 0 8 0 C7.67 2.31 7.34 4.62 7 7 C6.67 7.33 6.34 7.66 6 8 C3.69 8 1.38 8 -1 8 C-0.67 5.36 -0.34 2.72 0 0 Z" transform="translate(78,124)" style=";" />
  <path d="M0 0 C0 6 0 6 -1 8 C-17 13 -17 13 -19 13 C-19 11.02 -19 9.04 -19 7 C-13.16949856 3.50169914 -7.07220135 0 0 0 Z" transform="translate(45,117)" style=";" />
  <path d="M0 0 C5.94 0 11.88 0 18 0 C20.86744176 5.73488351 20.25083791 12.63212223 21 19 C15.06 19 9.12 19 3 19 C1 13 1 13 0 0 Z" transform="translate(132,115)" style=";" />
  <path d="M0 0 C0 1.98 0 3.96 0 6 C-7 9 -7 9 -8 9 C-8 6.69 -8 4.38 -8 2 C-4 0 -4 0 0 0 Z" transform="translate(59,114)" style=";" />
  <path d="M0 0 C0 2.31 0 4.62 0 7 C-6 9 -6 9 -8 9 C-8 6.69 -8 4.38 -8 2 C-2 0 -2 0 0 0 Z" transform="translate(73,111)" style=";" />
  <path d="M0 0 C2.31 0 4.62 0 7 0 C6.67 2.64 6.34 5.28 6 8 C3.69 8 1.38 8 -1 8 C-1 5.69 -1 3.38 -1 1 C-0.67 0.67 -0.34 0.34 0 0 Z" transform="translate(80,110)" style=";" />
  <path d="M0 0 C2.31 0 4.62 0 7 0 C7 0.66 7 1.32 7 2 C4.69 2.33 2.38 2.66 0 3 C0 2.01 0 1.02 0 0 Z" transform="translate(66,103)" style=";" />
  <path d="M0 0 C2.31 0 4.62 0 7 0 C7 1.32 7 2.64 7 4 C4.69 4.66 2.38 5.32 0 6 C0 4.02 0 2.04 0 0 Z" transform="translate(52,103)" style=";" />
  <path d="M0 0 C5.94 0 11.88 0 18 0 C18 2.31 18 4.62 18 7 C12.07813432 9.22069963 6.05782533 11.1826524 0 13 C0 8.71 0 4.42 0 0 Z" transform="translate(28,103)" style=";" />
  <path d="M0 0 C2.31 0.33 4.62 0.66 7 1 C7 1.66 7 2.32 7 3 C4.69 3 2.38 3 0 3 C0 2.01 0 1.02 0 0 Z" transform="translate(66,94)" style=";" />
  <path d="M0 0 C0 5.94 0 11.88 0 18 C-13 20 -13 20 -18 20 C-18 14.06 -18 8.12 -18 2 C-9 0 -9 0 0 0 Z" transform="translate(125,92)" style=";" />
  <path d="M0 0 C5.61 0.66 11.22 1.32 17 2 C17.33 2.33 17.66 2.66 18 3 C18.33 8.94 18.66 14.88 19 21 C12.73 20.34 6.46 19.68 0 19 C0 12.73 0 6.46 0 0 Z" transform="translate(156,91)" style=";" />
  <path d="M0 0 C6.27 0 12.54 0 19 0 C19 5.94 19 11.88 19 18 C13.06 18 7.12 18 1 18 C0.67 17.67 0.34 17.34 0 17 C0 11.39 0 5.78 0 0 Z" transform="translate(131,91)" style=";" />
  <path d="M0 0 C2.31 0.66 4.62 1.32 7 2 C7.33 3.32 7.66 4.64 8 6 C5.36 6 2.72 6 0 6 C0 4.02 0 2.04 0 0 Z" transform="translate(52,91)" style=";" />
  <path d="M0 0 C8.415 2.475 8.415 2.475 17 5 C17.33 5.33 17.66 5.66 18 6 C18 8.31 18 10.62 18 13 C12.06 13 6.12 13 0 13 C0 8.71 0 4.42 0 0 Z" transform="translate(28,84)" style=";" />
  <path d="M0 0 C2.31 0 4.62 0 7 0 C7.33 2.64 7.66 5.28 8 8 C5.69 8 3.38 8 1 8 C0.67 7.67 0.34 7.34 0 7 C0 4.69 0 2.38 0 0 Z" transform="translate(79,82)" style=";" />
  <path d="M0 0 C2.31 0.33 4.62 0.66 7 1 C7.33 1.33 7.66 1.66 8 2 C8 4.31 8 6.62 8 9 C5.69 8.67 3.38 8.34 1 8 C0.67 7.67 0.34 7.34 0 7 C0 4.69 0 2.38 0 0 Z" transform="translate(65,80)" style=";" />
  <path d="M0 0 C2.31 0.66 4.62 1.32 7 2 C7.33 2.33 7.66 2.66 8 3 C8 4.98 8 6.96 8 9 C5.69 8.67 3.38 8.34 1 8 C0.67 7.67 0.34 7.34 0 7 C0 4.69 0 2.38 0 0 Z" transform="translate(51,77)" style=";" />
  <path d="M0 0 C6.00775852 1.6384796 12.01241676 3.28926193 18 5 C19 7 19 7 19 13 C8 10 8 10 1 7 C0.67 6.67 0.34 6.34 0 6 C0 4.02 0 2.04 0 0 Z" transform="translate(26,70)" style=";" />
  <path d="M0 0 C2.31 0 4.62 0 7 0 C9 7 9 7 9 8 C6.36 8 3.72 8 1 8 C0.67 5.36 0.34 2.72 0 0 Z" transform="translate(77,68)" style=";" />
  <path d="M0 0 C-0.52886055 6.34632666 -1.09938293 12.69568049 -2 19 C-11.405 20.485 -11.405 20.485 -21 22 C-20 8 -20 8 -19 3 C-5.5 0 -5.5 0 0 0 Z" transform="translate(128,66)" style=";" />
  <path d="M0 0 C5.94 0 11.88 0 18 0 C16 16 16 16 15 19 C9.06 19 3.12 19 -3 19 C-2 6 -2 6 0 0 Z" transform="translate(135,66)" style=";" />
  <path d="M0 0 C2.31 0.33 4.62 0.66 7 1 C7.66 3.31 8.32 5.62 9 8 C8.01 8.33 7.02 8.66 6 9 C4.35 8.67 2.7 8.34 1 8 C0.67 5.36 0.34 2.72 0 0 Z" transform="translate(63,66)" style=";" />
  <path d="M0 0 C2.31 0.66 4.62 1.32 7 2 C7.33 2.33 7.66 2.66 8 3 C8 4.98 8 6.96 8 9 C5.69 8.67 3.38 8.34 1 8 C0.67 5.36 0.34 2.72 0 0 Z" transform="translate(49,63)" style=";" />
  <path d="M0 0 C1.98 0 3.96 0 6 0 C6 2.31 6 4.62 6 7 C4.68 7.33 3.36 7.66 2 8 C1.34 5.36 0.68 2.72 0 0 Z" transform="translate(88,55)" style=";" />
  <path d="M0 0 C6.71495333 1.83135091 13.39697039 3.79899013 20 6 C20.33 8.64 20.66 11.28 21 14 C14.73 12.02 8.46 10.04 2 8 C1.34 5.36 0.68 2.72 0 0 Z" transform="translate(22,55)" style=";" />
  <path d="M0 0 C6 0 6 0 8 1 C8.33 3.31 8.66 5.62 9 8 C6.69 8 4.38 8 2 8 C1.34 5.36 0.68 2.72 0 0 Z" transform="translate(74,54)" style=";" />
  <path d="M0 0 C2.64 0.33 5.28 0.66 8 1 C8.33 3.64 8.66 6.28 9 9 C6.69 8.67 4.38 8.34 2 8 C0 2 0 2 0 0 Z" transform="translate(60,52)" style=";" />
  <path d="M0 0 C2.31 0.33 4.62 0.66 7 1 C7.66 3.64 8.32 6.28 9 9 C6.69 8.67 4.38 8.34 2 8 C0 4 0 4 0 0 Z" transform="translate(46,49)" style=";" />
  <path d="M0 0 C0.66 0.33 1.32 0.66 2 1 C10.51801281 29.96124354 11.48882748 56.07448345 7 86 C5.35 91.61 3.7 97.22 2 103 C1.01 103.495 1.01 103.495 0 104 C-1.32 103.34 -2.64 102.68 -4 102 C-2 92 0 82 2 72 C4.58278665 48.75492017 1.98927011 27.45976289 -4 5 C-3.67 3.68 -3.34 2.36 -3 1 C-2.01 0.67 -1.02 0.34 0 0 Z" transform="translate(11,48)" style=";" />
  <path d="M0 0 C14.31472942 4.40453213 20.87133904 7.98420513 32 18 C39.20885085 28.29835836 42.54635369 35.73176844 45 48 C45 58 45 58 41 74 C34 86 34 86 25 95 C16.7422008 99.95467952 9.50072902 104.0998542 0 106 C-17 106 -17 106 -30 102 C-40 96 -40 96 -50 87 C-56.12605872 76.78990213 -59.66802872 68.65985639 -62 57 C-64.31 57 -66.62 57 -69 57 C-69 54.36 -69 51.72 -69 49 C-66.69 49 -64.38 49 -62 49 C-60.68 43.72 -59.36 38.44 -58 33 C-53 23 -53 23 -42 11 C-25.48611555 1.5634946 -19.11456157 0 0 0 Z M-18 7 C-18.33 8.98 -18.66 10.96 -19 13 C-25.435 13.495 -25.435 13.495 -32 14 C-40.00138793 16.84188612 -40.00138793 16.84188612 -47 26 C-47.66 31.28 -48.32 36.56 -49 42 C-50.65 42.66 -52.3 43.32 -54 44 C-54.495 44.495 -54.495 44.495 -55 45 C-55 46.65 -55 48.3 -55 50 C-52.03 49.505 -52.03 49.505 -49 49 C-49 52.3 -49 55.6 -49 59 C-48.67 61.64 -48.34 64.28 -48 67 C-49.98 67.495 -49.98 67.495 -52 68 C-51.67 69.65 -51.34 71.3 -51 73 C-49.68 73 -48.36 73 -47 73 C-47 75.31 -47 77.62 -47 80 C-44.69 82.64 -42.38 85.28 -40 88 C-38.18010841 83.28568122 -38.18010841 83.28568122 -41 71 C-35.06 70.505 -35.06 70.505 -29 70 C-26.03 69.505 -26.03 69.505 -23 69 C-22.505 75.435 -22.505 75.435 -22 82 C-21.67 83.65 -21.34 85.3 -21 87 C-26.28 87.66 -31.56 88.32 -37 89 C-35.35 90.65 -33.7 92.3 -32 94 C-23.05409255 94.52704628 -23.05409255 94.52704628 -19 93 C-18.67 94.98 -18.34 96.96 -18 99 C-15.03 99.495 -15.03 99.495 -12 100 C-12.495 96.535 -12.495 96.535 -13 93 C-7.06 93 -1.12 93 5 93 C5.33 94.32 5.66 95.64 6 97 C12.17717739 96.05605607 12.17717739 96.05605607 21 90 C17.61430493 87.43126321 17.61430493 87.43126321 11 87 C9.80707212 81.03536061 8.75447384 75.03579069 8 69 C12.29 69.66 16.58 70.32 21 71 C22.65 71 24.3 71 26 71 C26.495 75.95 26.495 75.95 27 81 C27.66 81.33 28.32 81.66 29 82 C35.05605607 73.17717739 35.05605607 73.17717739 36 67 C34.68 67 33.36 67 32 67 C32 61.39 32 55.78 32 50 C32.33 49.67 32.66 49.34 33 49 C34.65 49.33 36.3 49.66 38 50 C38 48.02 38 46.04 38 44 C36.515 43.01 36.515 43.01 35 42 C34.01 42 33.02 42 32 42 C32.33 38.04 32.66 34.08 33 30 C31.68 28.02 30.36 26.04 29 24 C28.34 24.33 27.68 24.66 27 25 C26.67 29.95 26.34 34.9 26 40 C20.06 39.01 14.12 38.02 8 37 C8.66 31.39 9.32 25.78 10 20 C15.28 20.66 20.56 21.32 26 22 C24.02 19.69 22.04 17.38 20 15 C17.36 14.34 14.72 13.68 12 13 C11.505 11.515 11.505 11.515 11 10 C9.35 9.67 7.7 9.34 6 9 C5.67 10.32 5.34 11.64 5 13 C-0.94 13 -6.88 13 -13 13 C-12.67 10.69 -12.34 8.38 -12 6 C-14.02758751 6 -16.01178687 6.60235737 -18 7 Z" transform="translate(149,47)" style=";" />
  <path d="M0 0 C10.395 3.465 10.395 3.465 21 7 C23 12 23 12 23 15 C12 12 12 12 2 8 C0 3 0 3 0 0 Z" transform="translate(17,39)" style=";" />
  <path d="M0 0 C3.96 0 7.92 0 12 0 C10.02 5.94 8.04 11.88 6 18 C3.69 18 1.38 18 -1 18 C-1 12.39 -1 6.78 -1 1 C-0.67 0.67 -0.34 0.34 0 0 Z" transform="translate(101,31)" style=";" />
  <path d="M0 0 C3.96 0 7.92 0 12 0 C12.33 0.33 12.66 0.66 13 1 C13 6.61 13 12.22 13 18 C10.69 18 8.38 18 6 18 C3.77930037 12.07813432 1.8173476 6.05782533 0 0 Z" transform="translate(81,31)" style=";" />
  <path d="M0 0 C-3 11 -3 11 -6 19 C-8.31 19 -10.62 19 -13 19 C-11.48968687 12.95874748 -9.9692074 6.9076222 -8 1 C-5 0 -5 0 0 0 Z" transform="translate(127,29)" style=";" />
  <path d="M0 0 C2.31 0.33 4.62 0.66 7 1 C11 11 11 11 13 19 C10.69 19 8.38 19 6 19 C0 5 0 5 0 0 Z" transform="translate(67,29)" style=";" />
  <path d="M0 0 C-1.83135091 6.71495333 -3.79899013 13.39697039 -6 20 C-9.96 20.495 -9.96 20.495 -14 21 C-10 8 -10 8 -8 2 C-2 0 -2 0 0 0 Z" transform="translate(142,25)" style=";" />
  <path d="M0 0 C2.64 0.66 5.28 1.32 8 2 C13 17 13 17 13 21 C10.69 20.67 8.38 20.34 6 20 C0 3 0 3 0 0 Z" transform="translate(52,25)" style=";" />
  <path d="M0 0 C0.99 0.33 1.98 0.66 3 1 C0.69 7.6 -1.62 14.2 -4 21 C-9 23 -9 23 -12 23 C-9 12 -9 12 -5 2 C-3.35 1.34 -1.7 0.68 0 0 Z" transform="translate(155,20)" style=";" />
  <path d="M0 0 C5 1 5 1 8 2 C15 21 15 21 15 23 C12.69 22.67 10.38 22.34 8 22 C4 13 4 13 0 0 Z" transform="translate(36,20)" style=";" />
  <path d="M0 0 C-3 11 -3 11 -7 22 C-27 29 -27 29 -29 29 C-26 18 -26 18 -22 7 C-3 0 -3 0 0 0 Z" transform="translate(187,10)" style=";" />
  <path d="M0 0 C4.455 0.99 4.455 0.99 9 2 C36.2319653 7.73304533 59.22803627 7.62866062 87 3 C90.3 2.01 93.6 1.02 97 0 C97.99 0 98.98 0 100 0 C100.495 2.97 100.495 2.97 101 6 C71.89044443 14.95678633 45.45631381 15.80889165 15 11 C6.585 8.525 6.585 8.525 -2 6 C-1.34 4.02 -0.68 2.04 0 0 Z" transform="translate(47,10)" style=";" />
  <path d="M0 0 C7.54615428 1.50923086 14.74312586 4.43875031 22 7 C25.465 17.89 25.465 17.89 29 29 C18 26 18 26 7 22 C1 6 1 6 0 0 Z" transform="translate(7,10)" style=";" />
</svg>
